<svg width="43" height="40" viewBox="0 0 43 40" fill="none" xmlns="http://www.w3.org/2000/svg">
<path d="M37.4095 32.2941C19.5984 40.0001 8.54463 33.5527 1.46876 29.6367C1.03091 29.3899 0.286711 29.6944 0.932403 30.3686C3.28973 32.9671 11.0152 39.2301 21.0992 39.2301C31.1901 39.2301 37.1932 34.2246 37.9442 33.3514C38.6901 32.4856 38.1632 32.008 37.4094 32.2941H37.4095ZM42.4118 29.7827C41.9334 29.2165 39.5033 29.1109 37.974 29.2817C36.4423 29.4476 34.1432 30.2986 34.3431 30.8096C34.4456 31.001 34.655 30.9151 35.7072 30.8291C36.7623 30.7334 39.7181 30.3943 40.334 31.1262C40.9528 31.8632 39.3913 35.3741 39.1061 35.9403C38.8306 36.5066 39.2114 36.6526 39.729 36.2755C40.2394 35.8985 41.1635 34.9222 41.7837 33.5407C42.3996 32.1516 42.7753 30.2138 42.4118 29.7827Z" fill="#FF9900"/>
<path fill-rule="evenodd" clip-rule="evenodd" d="M25.4334 16.57C25.4334 18.5919 25.4896 20.2781 24.3655 22.0737C23.4581 23.5337 22.0208 24.4315 20.415 24.4315C18.2228 24.4315 16.9462 22.9132 16.9462 20.6723C16.9462 16.2487 21.3061 15.4458 25.4334 15.4458V16.57ZM31.1905 29.2201C30.8131 29.5266 30.2671 29.5486 29.8416 29.3441C27.9466 27.9135 27.6093 27.2492 26.5655 25.8842C23.4341 28.7894 21.2179 29.658 17.155 29.658C12.3534 29.658 8.61157 26.9644 8.61157 21.5701C8.61157 17.3584 11.1249 14.4896 14.6978 13.0882C17.7973 11.8471 22.1252 11.6282 25.4334 11.2852V10.6136C25.4334 9.37989 25.5377 7.92002 24.7429 6.85436C24.0442 5.89809 22.7114 5.50389 21.539 5.50389C19.3631 5.50389 17.4199 6.51847 16.9462 8.62072C16.8497 9.08801 16.4724 9.54791 15.9586 9.56976L10.4182 9.02969C9.95255 8.9346 9.4387 8.59164 9.56716 7.94187C10.8438 1.8396 16.9059 0 22.3338 0C25.112 0 28.7413 0.671619 30.9334 2.58415C33.7117 4.94182 33.4466 8.08789 33.4466 11.5114V19.5993C33.4466 22.03 34.5547 23.0957 35.5985 24.4097C35.9678 24.8768 36.0482 25.439 35.5824 25.7892C34.4181 26.6724 32.3465 28.3149 31.2064 29.2347L31.1903 29.2201" fill="black"/>
<path d="M37.4095 32.2941C19.5984 40.0001 8.54463 33.5527 1.46876 29.6367C1.03091 29.3899 0.286711 29.6944 0.932403 30.3686C3.28973 32.9671 11.0152 39.2301 21.0992 39.2301C31.1901 39.2301 37.1932 34.2246 37.9442 33.3514C38.6901 32.4856 38.1632 32.008 37.4094 32.2941H37.4095ZM42.4118 29.7827C41.9334 29.2165 39.5033 29.1109 37.974 29.2817C36.4423 29.4476 34.1432 30.2986 34.3431 30.8096C34.4456 31.001 34.655 30.9151 35.7072 30.8291C36.7623 30.7334 39.7181 30.3943 40.334 31.1262C40.9528 31.8632 39.3913 35.3741 39.1061 35.9403C38.8306 36.5066 39.2114 36.6526 39.729 36.2755C40.2394 35.8985 41.1635 34.9222 41.7837 33.5407C42.3996 32.1516 42.7753 30.2138 42.4118 29.7827Z" fill="#FF9900"/>
<path fill-rule="evenodd" clip-rule="evenodd" d="M25.4334 16.57C25.4334 18.5919 25.4896 20.2781 24.3655 22.0737C23.4581 23.5337 22.0208 24.4315 20.415 24.4315C18.2228 24.4315 16.9462 22.9132 16.9462 20.6723C16.9462 16.2487 21.3061 15.4458 25.4334 15.4458V16.57ZM31.1905 29.2201C30.8131 29.5266 30.2671 29.5486 29.8416 29.3441C27.9466 27.9135 27.6093 27.2492 26.5655 25.8842C23.4341 28.7894 21.2179 29.658 17.155 29.658C12.3534 29.658 8.61157 26.9644 8.61157 21.5701C8.61157 17.3584 11.1249 14.4896 14.6978 13.0882C17.7973 11.8471 22.1252 11.6282 25.4334 11.2852V10.6136C25.4334 9.37989 25.5377 7.92002 24.7429 6.85436C24.0442 5.89809 22.7114 5.50389 21.539 5.50389C19.3631 5.50389 17.4199 6.51847 16.9462 8.62072C16.8497 9.08801 16.4724 9.54791 15.9586 9.56976L10.4182 9.02969C9.95255 8.9346 9.4387 8.59164 9.56716 7.94187C10.8438 1.8396 16.9059 0 22.3338 0C25.112 0 28.7413 0.671619 30.9334 2.58415C33.7117 4.94182 33.4466 8.08789 33.4466 11.5114V19.5993C33.4466 22.03 34.5547 23.0957 35.5985 24.4097C35.9678 24.8768 36.0482 25.439 35.5824 25.7892C34.4181 26.6724 32.3465 28.3149 31.2064 29.2347L31.1903 29.2201" fill="black"/>
</svg>
