<svg width="36" height="36" viewBox="0 0 36 36" fill="none" xmlns="http://www.w3.org/2000/svg">
<g clip-path="url(#clip0_85_532)">
<path d="M17 8.49997C17 3.80898 13.1926 0 8.49818 0C3.80484 0 0 3.80412 0 8.49516C0 13.1861 3.80477 17 8.50031 17H17V8.49997Z" fill="#228800"/>
<path d="M19 8.50003C19 3.80899 22.8074 0 27.5018 0C32.1952 0 36 3.80413 36 8.49513C36 13.1862 32.1952 17 27.4997 17H19V8.50003Z" fill="#228800"/>
<path d="M17 27.5C17 32.1956 13.1937 36 8.49743 36C3.80635 36 0 32.1985 0 27.5028C0 22.8116 3.80628 19 8.50032 19H17V27.5ZM8.49743 33.6031C11.871 33.6031 14.6156 30.8666 14.6156 27.5028V21.3858H8.5052C5.13017 21.3858 2.38417 24.1405 2.38417 27.5028C2.38417 30.8666 5.12646 33.6031 8.49743 33.6031Z" fill="#228800"/>
<path d="M19 27.5C19 32.1956 22.8063 36 27.5026 36C32.1938 36 36 32.1985 36 27.5028C36 22.8116 32.1938 19 27.4997 19H19V27.5Z" fill="#228800"/>
</g>
<defs>
<clipPath id="clip0_85_532">
<rect width="36" height="36" fill="white"/>
</clipPath>
</defs>
</svg>
