<svg width="48" height="16" viewBox="0 0 48 16" fill="none" xmlns="http://www.w3.org/2000/svg">
<g clip-path="url(#clip0_85_507)">
<path d="M29.8715 8.57001C27.7359 8.62575 26.409 8.93267 26.409 10.0529C26.409 10.7782 27.135 11.5644 28.9781 11.5644C31.4493 11.5644 32.7683 10.4917 32.7683 8.73235L32.7685 8.53884C31.9021 8.53884 30.8337 8.54487 29.8715 8.57001ZM35.1238 10.8945C35.1238 11.4403 35.1436 11.9791 35.2034 12.4643H33.0126C32.9541 12.0648 32.9328 11.6678 32.9328 11.2828C31.7483 12.4423 30.3395 12.7757 28.385 12.7757C25.4862 12.7757 23.9341 11.5555 23.9341 10.1441C23.9341 8.10001 26.0451 7.37929 29.7099 7.31242C30.7121 7.2942 31.8378 7.2915 32.7685 7.2915L32.7683 7.09178C32.7683 5.72331 31.6665 5.16065 29.7571 5.16065C28.3397 5.16065 27.295 5.6278 27.1873 6.43501H24.7127C24.9746 4.42236 27.6298 3.91333 29.9645 3.91333C32.7614 3.91333 35.1238 4.70583 35.1238 7.06172L35.1238 10.8945Z" fill="#FFBC13"/>
<path d="M9.49985 7.57186C9.40847 5.81726 7.81821 5.16065 6.11861 5.16065C4.28588 5.16065 2.82265 5.89924 2.56633 7.57186H9.49985ZM2.51556 8.81921C2.64266 10.5216 4.11684 11.5285 6.14385 11.5285C7.54822 11.5285 8.79746 11.0728 9.21574 10.0815H11.6449C11.1725 12.0929 8.48867 12.7757 6.17866 12.7757C1.97845 12.7757 0.116943 10.9335 0.116943 8.44924C0.116943 5.71445 2.04233 3.91333 6.21698 3.91333C9.53982 3.91333 11.9745 5.2982 11.9745 8.32089V8.81921H2.51556Z" fill="#F12C2D"/>
<path d="M18.0161 11.4929C20.205 11.4929 21.7029 10.2382 21.7029 8.34479C21.7029 6.45152 20.205 5.19663 18.0161 5.19663C15.8395 5.19663 14.3293 6.45152 14.3293 8.34479C14.3293 10.2382 15.8395 11.4929 18.0161 11.4929ZM11.9745 0.61499H14.3293L14.329 5.32653C15.4832 4.23135 17.0733 3.91337 18.6385 3.91337C21.2627 3.91337 24.1775 5.32362 24.1775 8.36858C24.1775 10.9184 21.8594 12.7757 18.5948 12.7757C16.886 12.7757 15.2775 12.2876 14.2855 11.3204C14.2855 11.7067 14.2584 12.096 14.2054 12.4644H11.8943C11.9345 11.8689 11.9744 11.1274 11.9744 10.5275L11.9745 0.61499Z" fill="#0968F6"/>
<path d="M47.1169 4.22534L39.8346 15.615H37.1976L39.2912 12.4523L33.8108 4.22534H36.5662L40.5991 10.6532L44.6205 4.22534H47.1169Z" fill="#93C822"/>
</g>
<defs>
<clipPath id="clip0_85_507">
<rect width="47" height="15" fill="white" transform="translate(0.116943 0.61499)"/>
</clipPath>
</defs>
</svg>
