<svg width="42" height="41" viewBox="0 0 42 41" fill="none" xmlns="http://www.w3.org/2000/svg">
<path d="M34.0646 8.05116C34.0364 7.84616 33.8568 7.73271 33.7084 7.72021C33.5603 7.70785 30.4252 7.47547 30.4252 7.47547C30.4252 7.47547 28.2478 5.31385 28.0089 5.07459C27.7697 4.83547 27.3027 4.9082 27.1215 4.96156C27.0948 4.96942 26.6458 5.10801 25.903 5.33786C25.1756 3.24489 23.892 1.32154 21.6338 1.32154C21.5714 1.32154 21.5073 1.32407 21.4431 1.32772C20.8009 0.478375 20.0053 0.109375 19.3181 0.109375C14.0576 0.109375 11.5444 6.68552 10.7564 10.0273C8.71232 10.6607 7.26019 11.111 7.07471 11.1693C5.93373 11.5272 5.89764 11.5631 5.74783 12.6382C5.63508 13.4522 2.64966 36.5398 2.64966 36.5398L25.9127 40.8985L38.5174 38.1717C38.5174 38.1717 34.0924 8.25616 34.0646 8.05116ZM24.6172 5.7355L22.6488 6.34475C22.6495 6.20602 22.6502 6.06954 22.6502 5.92028C22.6502 4.61952 22.4697 3.57219 22.18 2.74194C23.3436 2.88797 24.1185 4.2119 24.6172 5.7355ZM20.7366 2.99988C21.0601 3.81047 21.2704 4.97377 21.2704 6.54357C21.2704 6.62388 21.2697 6.69732 21.269 6.77159C19.9889 7.16812 18.5978 7.59862 17.2037 8.03052C17.9865 5.00944 19.4538 3.55029 20.7366 2.99988ZM19.1736 1.52036C19.4007 1.52036 19.6294 1.59745 19.8483 1.74811C18.1624 2.54143 16.3553 4.53948 15.5922 8.52954L12.3787 9.52477C13.2726 6.48136 15.3952 1.52036 19.1736 1.52036Z" fill="#95BF46"/>
<path d="M33.7085 7.7201C33.5603 7.70775 30.4252 7.47537 30.4252 7.47537C30.4252 7.47537 28.2479 5.31374 28.0089 5.07448C27.9194 4.98546 27.7988 4.93982 27.6727 4.92017L25.9138 40.8981L38.5174 38.1716C38.5174 38.1716 34.0925 8.25605 34.0647 8.05105C34.0365 7.84605 33.8569 7.7326 33.7085 7.7201Z" fill="#5E8E3E"/>
<path d="M21.6338 14.6848L20.0796 19.308C20.0796 19.308 18.7179 18.5812 17.0486 18.5812C14.6016 18.5812 14.4784 20.1169 14.4784 20.5038C14.4784 22.6153 19.9825 23.4244 19.9825 28.3702C19.9825 32.2614 17.5145 34.7671 14.1868 34.7671C10.1935 34.7671 8.15137 32.2818 8.15137 32.2818L9.2206 28.7491C9.2206 28.7491 11.3197 30.5512 13.091 30.5512C14.2484 30.5512 14.7192 29.64 14.7192 28.9741C14.7192 26.2198 10.2036 26.097 10.2036 21.5711C10.2036 17.7619 12.9377 14.0757 18.4567 14.0757C20.5832 14.0757 21.6338 14.6848 21.6338 14.6848Z" fill="white"/>
</svg>
