<svg width="37" height="37" viewBox="0 0 37 37" fill="none" xmlns="http://www.w3.org/2000/svg">
<g clip-path="url(#clip0_85_527)">
<path d="M30.6162 0.5H6.61773C3.31825 0.5 0.616943 3.20005 0.616943 6.50101V30.501C0.616943 33.7993 3.31825 36.5 6.61773 36.5H30.6168C33.9163 36.5 36.6176 33.7999 36.6176 30.501V6.50101C36.6169 3.20005 33.9156 0.5 30.6162 0.5ZM30.0708 28.0473C30.0708 29.0962 29.212 29.9522 28.1625 29.9522H9.07002C8.02116 29.9522 7.16178 29.0955 7.16178 28.0473V8.95475C7.16178 7.90585 8.02116 7.04644 9.07002 7.04644H28.1625C29.212 7.04644 30.0708 7.90585 30.0708 8.95475V28.0473ZM23.5273 22.3183C23.5273 22.9199 23.036 23.4092 22.4378 23.4092H14.8015C14.2013 23.4092 13.712 22.9192 13.712 22.3183V14.6824C13.712 14.0821 14.2013 13.5922 14.8015 13.5922H22.4371C23.036 13.5922 23.5266 14.0828 23.5266 14.6824L23.5273 22.3183Z" fill="black"/>
</g>
<defs>
<clipPath id="clip0_85_527">
<rect width="36" height="36" fill="white" transform="translate(0.616943 0.5)"/>
</clipPath>
</defs>
</svg>
